<?xml version="1.0" encoding="UTF-8"?>
<svg id="LOGO_VARIATIONS" data-name="LOGO VARIATIONS" xmlns="http://www.w3.org/2000/svg" viewBox="0 0 1000 1000">
  <defs>
    <style>
      .cls-1 {
        fill: #c31230;
      }

      .cls-2 {
        fill: #231f20;
      }
    </style>
  </defs>
  <g>
    <path class="cls-1" d="M476.6388,521.3464c-13.918,0-25.4131-4.624-34.4839-13.873-9.0732-9.248-13.6089-20.6543-13.6089-34.2197,0-13.6523,4.5356-25.0801,13.6089-34.2861,9.0708-9.2031,20.5659-13.8066,34.4839-13.8066,8.3672,0,16.0967,1.9609,23.188,5.8799,7.0889,3.9199,12.6177,9.2275,16.5811,15.9209l-15.7227,9.1162c-2.2915-4.1396-5.5488-7.376-9.7769-9.7109-4.228-2.333-8.9844-3.501-14.2695-3.501-8.9844,0-16.2305,2.8193-21.7339,8.4551-5.5059,5.6387-8.2578,12.9482-8.2578,21.9326,0,8.8975,2.752,16.1641,8.2578,21.8008,5.5034,5.6377,12.7495,8.4551,21.7339,8.4551,5.2852,0,10.062-1.166,14.3354-3.501,4.2715-2.333,7.5083-5.5264,9.7109-9.5791l15.7227,9.1172c-3.9634,6.6943-9.4692,12.002-16.5151,15.9209-7.0479,3.9199-14.7979,5.8789-23.2539,5.8789Z"/>
    <path class="cls-1" d="M644.5675,427.0104v92.4863h-18.1006v-59.9834l-26.0825,42.9063-2.126,.0742-25.9619-42.7539v59.7568h-18.2334v-92.4863h18.7617l26.5195,43.6709,26.3853-43.6709h18.8379Z"/>
    <path class="cls-1" d="M722.6515,521.3464c-10.3057,0-18.7617-2.9063-25.3682-8.7197-6.6055-5.8135-9.9092-13.6094-9.9092-23.3857v-62.2305h18.1016v60.7764c0,4.8457,1.3867,8.6768,4.1611,11.4951,2.7754,2.8203,7.1123,4.2275,13.0146,4.2275s10.2393-1.4072,13.0137-4.2275c2.7744-2.8184,4.1621-6.6494,4.1621-11.4951v-60.7764h18.2334v62.2305c0,9.7764-3.3037,17.5723-9.9092,23.3857-6.6064,5.8135-15.1074,8.7197-25.5,8.7197Z"/>
  </g>
  <g>
    <path class="cls-2" d="M442.966,534.0158c3.5929,0,6.5932,1.2039,9.0009,3.6162,2.4077,2.4077,3.6116,5.408,3.6116,9.0009s-1.2039,6.5932-3.6116,9.0009-5.408,3.6116-9.0009,3.6116h-10.3214v14.9082h-4.0129v-40.1379h14.3343Zm0,21.4454c2.4824,0,4.5401-.8306,6.1639-2.4917,1.6238-1.6658,2.4357-3.7749,2.4357-6.3366s-.8119-4.6754-2.4357-6.3366-3.6816-2.4964-6.1639-2.4964h-10.3214v17.6612h10.3214Z"/>
    <path class="cls-2" d="M495.3758,568.7923c-4.0129,4.0315-8.9263,6.0473-14.7356,6.0473-5.814,0-10.7227-2.0158-14.7356-6.0473-4.0129-4.0315-6.0193-8.9356-6.0193-14.7076s2.0064-10.6714,6.0193-14.7076c4.0129-4.0315,8.9216-6.0473,14.7356-6.0473,5.8093,0,10.7227,2.0158,14.7356,6.0473,4.0129,4.0362,6.0193,8.9356,6.0193,14.7076s-2.0064,10.6761-6.0193,14.7076Zm-26.6622-2.753c3.2103,3.2709,7.1858,4.9041,11.9266,4.9041,4.7361,0,8.7163-1.6331,11.9266-4.9041,3.2103-3.2663,4.8154-7.2511,4.8154-11.9546,0-4.6988-1.6051-8.6836-4.8154-11.9546-3.2103-3.2663-7.1905-4.8994-11.9266-4.8994-4.7408,0-8.7163,1.6331-11.9266,4.8994-3.2103,3.2709-4.8154,7.2558-4.8154,11.9546,0,4.7034,1.6051,8.6883,4.8154,11.9546Z"/>
    <path class="cls-2" d="M536.3676,574.1537h-5.2727l-18.8091-19.4857v19.4857h-4.0129v-40.1379h4.0129v18.3705l18.2352-18.3705h5.2727l-19.2617,19.495,19.8356,20.6429Z"/>
    <path class="cls-2" d="M545.5411,570.3695h19.495v3.7842h-23.5079v-40.1379h23.2232v3.7842h-19.2104v14.2223h17.7732v3.7842h-17.7732v14.5629Z"/>
    <path class="cls-2" d="M596.5697,574.1537l-9.3649-16.0561h-11.278v16.0561h-4.0129v-40.1379h16.0561c3.3223,0,6.1639,1.1759,8.511,3.5276,2.3517,2.3517,3.5276,5.1887,3.5276,8.5157,0,2.7157-.8119,5.1327-2.4357,7.2511-1.6238,2.1231-3.6956,3.5462-6.2199,4.2742l9.8035,16.5694h-4.5868Zm-20.6429-36.3537v16.5134h12.0432c2.2164,0,4.1062-.8119,5.674-2.4357s2.3517-3.5649,2.3517-5.8186c0-2.2957-.7839-4.2415-2.3517-5.8466-1.5678-1.6098-3.4576-2.4124-5.674-2.4124h-12.0432Z"/>
    <path class="cls-2" d="M639.9739,574.8396c-6.0753,0-11.1053-2.0064-15.0809-6.0193-3.9755-4.0129-5.9586-8.9216-5.9586-14.7356,0-5.8093,1.9831-10.7227,5.9586-14.7356s9.0056-6.0193,15.0809-6.0193c3.7096,0,7.1112,.8866,10.2048,2.6643,3.0983,1.7778,5.4873,4.1762,7.1671,7.1951l-3.5509,2.0671c-1.2645-2.445-3.1356-4.3955-5.6227-5.8513-2.4824-1.4512-5.2167-2.1744-8.1984-2.1744-5.0067,0-9.0989,1.6238-12.2672,4.8714-3.173,3.2476-4.7594,7.2465-4.7594,11.9826,0,4.7408,1.5865,8.735,4.7594,11.9826,3.1683,3.2523,7.2605,4.8761,12.2672,4.8761,2.9816,0,5.716-.7279,8.1984-2.1791,2.487-1.4512,4.3581-3.4016,5.6227-5.8466l3.5509,2.0064c-1.6425,3.019-4.0222,5.4267-7.1345,7.2231-3.117,1.7965-6.5279,2.6923-10.2374,2.6923Z"/>
    <path class="cls-2" d="M667.9519,570.3695h18.3472v3.7842h-22.36v-40.1379h4.0129v36.3537Z"/>
    <path class="cls-2" d="M716.5775,570.9434c-2.753,2.599-6.3459,3.8962-10.7787,3.8962s-8.0257-1.2972-10.7787-3.8962c-2.753-2.599-4.1295-6.0799-4.1295-10.4381v-26.4895h4.0129v26.4895c0,3.215,.9566,5.7533,2.8697,7.6291,1.9084,1.8711,4.5868,2.809,8.0257,2.809s6.1173-.9379,8.0257-2.809c1.9131-1.8758,2.8697-4.4141,2.8697-7.6291v-26.4895h4.0129v26.4895c0,4.3581-1.3765,7.8391-4.1295,10.4381Z"/>
    <path class="cls-2" d="M751.5546,553.3381c1.9504,.8446,3.5042,2.1137,4.6708,3.8169,1.1665,1.6985,1.7498,3.6396,1.7498,5.8186,0,3.0936-1.0872,5.7347-3.2663,7.9137s-4.8201,3.2663-7.9137,3.2663h-17.4886v-40.1379h16.1681c2.9816,0,5.5247,1.0639,7.6291,3.1823,2.0998,2.1231,3.1496,4.6568,3.1496,7.6011,0,3.7422-1.5678,6.5932-4.6988,8.539Zm-6.0799-15.5381h-12.1552v13.9937h12.1552c1.8758,0,3.4716-.6813,4.7874-2.0391,1.3205-1.3532,1.9784-3.0096,1.9784-4.9554,0-1.9131-.6579-3.5556-1.9784-4.9321-1.3158-1.3765-2.9117-2.0671-4.7874-2.0671Zm1.3205,32.5695c1.9878,0,3.6769-.7186,5.0721-2.1511s2.0951-3.1823,2.0951-5.2447c0-2.0251-.6999-3.7656-2.0951-5.2167-1.3952-1.4558-3.0843-2.1791-5.0721-2.1791h-13.4757v14.7916h13.4757Z"/>
  </g>
  <path class="cls-2" d="M279.9393,534.584v-76.2505h-30.9172c-3.9117,0-7.0828,3.1711-7.0828,7.0828v121.8345c0,3.9117,3.171,7.0828,7.0828,7.0828h90.5011c3.9117,0,7.0828-3.1711,7.0828-7.0828v-45.5839h-59.5839c-3.9117,0-7.0828-3.171-7.0828-7.0828Z"/>
  <path class="cls-1" d="M377.5232,405.6667h-90.5011c-3.9117,0-7.0828,3.1711-7.0828,7.0828v45.5839h59.5839c3.9117,0,7.0828,3.1711,7.0828,7.0828v76.2505h30.9172c3.9117,0,7.0828-3.171,7.0828-7.0828v-121.8344c0-3.9117-3.171-7.0828-7.0828-7.0828Z"/>
  <path class="cls-2" d="M332.5678,504.1652c0-3.2981-1.4918-6.2473-3.8369-8.2112l.009-.0048s-11.5063-10.729-15.1871-18.4225c-.0988-.2065-.1929-.4112-.2801-.6131-.0872,.2019-.1813,.4066-.2801,.6131-3.6809,7.6935-15.1873,18.4223-15.1873,18.4223l.009,.0048c-2.3452,1.9638-3.837,4.9131-3.837,8.2111,0,5.9126,4.7931,10.7057,10.7057,10.7057,2.8034,0,5.3543-1.0783,7.2627-2.8418-2.124,7.7019-8.4105,9.8482-10.4993,10.3568v.7009s11.5771,0,11.5771,0h.4979s11.5771,0,11.5771,0v-.7009c-2.0889-.5086-8.3753-2.655-10.4993-10.3569,1.9084,1.7635,4.4593,2.8419,7.2627,2.8419,5.9126,0,10.7058-4.793,10.7058-10.7056Z"/>
</svg>